# xmcd CD database file
#
# Track frame offsets:
#	150
#	26075
#	59257
#	92962
#	125602
#	151982
#	193075
#	208712
#
# Disc length: 3361 seconds
#
# Revision: 0
# Processed by: cddbd v1.4PL0 Copyright (c) Steve Scherf et al.
# Submitted via: CDex 1.50beta9
#
DISCID=700d1f08
DTITLE=Ulf Adaker, Joakim Milder, Bobo Stenson, Palle Daniellson, Jonas Holgersson - Mingus by five
DYEAR=2002
DGENRE=Jazz
TTITLE0=Dizzy Moods
TTITLE1=Peggy's Blue Skylight
TTITLE2=Smooch
TTITLE3=What Love
TTITLE4=Goodbye Pork Pie Hat
TTITLE5=Orange Was The Color Of Her Dress
TTITLE6=Self-Portrait In Three Colors
TTITLE7=Reincarnation Of A Lovebird
EXTD=YEAR: 2002
EXTT0=
EXTT1=
EXTT2=
EXTT3=
EXTT4=
EXTT5=
EXTT6=
EXTT7=
PLAYORDER=
